<svg width="300" height="300" viewBox="0 0 300 300" fill="none" xmlns="http://www.w3.org/2000/svg">
<rect width="300" height="300" fill="#00A3FF"/>
<circle cx="110.117" cy="110.117" r="70.1175" stroke="black" stroke-width="30"/>
<ellipse cx="152.139" cy="162.124" rx="42.5587" ry="42.5587" transform="rotate(15 152.139 162.124)" fill="#FFD600"/>
<path d="M201.5 272.621C204.952 278.599 212.597 280.648 218.576 277.196C224.554 273.744 226.603 266.099 223.151 260.121L201.5 272.621ZM153.351 189.223L201.5 272.621L223.151 260.121L175.001 176.723L153.351 189.223Z" fill="#FFD600"/>
<circle cx="161.188" cy="152.676" r="42.5587" fill="#FFFF77"/>
<path d="M237.467 246.633C242.348 251.514 250.263 251.514 255.144 246.633C260.026 241.751 260.026 233.836 255.144 228.955L237.467 246.633ZM169.373 178.539L237.467 246.633L255.144 228.955L187.05 160.861L169.373 178.539Z" fill="#FFFF77"/>
<ellipse cx="170.753" cy="140.211" rx="42.5587" ry="42.5587" transform="rotate(-15 170.753 140.211)" fill="#FFD600"/>
<path d="M268.75 211.223C274.729 214.675 282.374 212.627 285.825 206.648C289.277 200.669 287.229 193.025 281.25 189.573L268.75 211.223ZM185.352 163.074L268.75 211.223L281.25 189.573L197.852 141.423L185.352 163.074Z" fill="#FFD600"/>
</svg>
