<svg width="520" height="520" viewBox="0 0 520 520" fill="none" xmlns="http://www.w3.org/2000/svg">
<rect width="520" height="520" fill="#FC8800"/>
<path d="M210 38.8675C240.94 21.0042 279.06 21.0042 310 38.8675L426.506 106.132C457.446 123.996 476.506 157.008 476.506 192.735V327.265C476.506 362.991 457.446 396.004 426.506 413.867L310 481.132C279.06 498.996 240.94 498.996 210 481.132L93.4936 413.867C62.5535 396.004 43.4936 362.991 43.4936 327.265V192.735C43.4936 157.008 62.5535 123.996 93.4936 106.132L210 38.8675Z" fill="black"/>
<path d="M296.145 135C320.241 135 338.062 136.592 349.608 139.777C361.155 142.962 369.187 145.439 373.705 147.208C378.725 148.977 382.49 150.216 385 150.924L360.151 187.548L350.361 183.832C329.779 176.755 311.707 173.217 296.145 173.217C283.092 173.217 271.546 176.401 261.506 182.771C252.47 188.786 247.952 194.448 247.952 199.756C246.446 207.187 248.203 213.556 253.223 218.864C258.745 224.172 265.773 229.126 274.307 233.726C282.841 238.326 292.129 242.926 302.169 247.527C312.711 252.127 321.998 257.435 330.03 263.45C350.11 277.251 357.892 294.59 353.373 315.467C349.357 336.345 336.556 353.153 314.97 365.892C293.384 378.631 263.765 385 226.114 385C195.492 385 168.886 380.577 146.295 371.73C141.777 369.607 138.012 368.015 135 366.953L159.096 330.329C161.606 331.037 164.869 332.275 168.886 334.045C173.404 335.814 178.424 337.406 183.946 338.822C198.002 343.068 211.054 345.191 223.102 345.191C245.191 345.191 261.757 339.883 272.801 329.268C276.315 326.083 278.574 321.66 279.578 315.998C281.084 309.982 279.076 304.674 273.554 300.074C268.032 295.12 261.004 290.52 252.47 286.274C243.936 281.674 234.649 277.074 224.608 272.473C214.568 267.519 205.281 262.035 196.747 256.019C177.169 242.219 169.388 224.88 173.404 204.002C177.42 182.771 190.221 165.963 211.807 153.578C233.394 141.193 261.506 135 296.145 135Z" fill="white"/>
</svg>
